<?xml version="1.0" encoding="utf-8"?>
<!-- Generator: Adobe Illustrator 25.4.1, SVG Export Plug-In . SVG Version: 6.00 Build 0)  -->
<svg version="1.1" id="Layer_1" xmlns="http://www.w3.org/2000/svg" xmlns:xlink="http://www.w3.org/1999/xlink" x="0px" y="0px"
	 viewBox="0 0 216 216" style="enable-background:new 0 0 216 216;" xml:space="preserve">
<style type="text/css">
	.st0{display:none;}
	.st1{fill:#6FC5A1;stroke:#ED2024;stroke-miterlimit:10;}
	.st2{fill:none;stroke:#ED2024;stroke-miterlimit:10;}
	.st3{fill:#00FFB9;stroke:#00FFB9;stroke-width:0.5;stroke-miterlimit:10;}
	.st4{fill:#00FFB9;stroke:#00FFB9;stroke-width:0.5;stroke-miterlimit:9.9995;}
	.st5{fill:#00FFB9;}
	.st6{fill:#00FFB9;stroke:#00FFB9;stroke-miterlimit:10;}
	.st7{fill:#00FFB9;stroke:#00FFB9;stroke-width:0.75;stroke-miterlimit:10;}
</style>
<g id="Layer_1_00000083768630773147515960000018259885607414002065_" class="st0">
</g>
<path class="st1" d="M63.4,92"/>
<path class="st2" d="M89.8,171.5"/>
<path class="st1" d="M89.8,171.5"/>
<path class="st1" d="M45.8,103.7"/>
<path class="st3" d="M101.1,187L101.1,187c-5.1-3.1-6.7-9.8-3.6-14.9l36.2-59.2c0.1-0.2,0.4-0.2,0.6-0.1l16.3,9.9
	c0.2,0.1,0.2,0.4,0.1,0.6L113.7,184C111,188.3,105.4,189.6,101.1,187z"/>
<polygon class="st3" points="95.8,101.8 101.6,86.3 110.8,86.3 117.2,101.8 "/>
<polygon class="st3" points="42.3,86.3 42.3,97.8 58.2,87.3 49.2,82 43.7,75 37.7,79 "/>
<polygon class="st3" points="35.8,62.6 26.7,65.1 30.1,67.8 33.6,73 40.7,69.3 "/>
<rect x="143.5" y="96.5" transform="matrix(0.521 -0.8535 0.8535 0.521 -20.204 178.394)" class="st4" width="10.6" height="21.3"/>
<path class="st5" d="M103,80.1c0,0,0-12.2,0-12.3c0-0.1-1-0.6-1.1-0.6c-0.8-0.5-1.7-1.2-2.4-1.8c-1.8-1.6-3.3-3.6-3.6-6
	c-0.4-2.7,0.5-5.5,2.4-7.5c1.6-1.7,3.8-2.8,6.1-3.2c3.7-0.7,7.9,0.6,10.2,3.6c2,2.6,2.5,6.1,1.6,9.2c-0.9,3-3.3,6.2-6.7,6.3
	l0.1,12.3c1,0,2,0,2.9,0c0.7-1.3,1.3-2.6,2-3.9c0.8-1.6,1.6-3.2,2.4-4.8c0.9-1.8,1.8-3.6,2.7-5.4c0.8-1.7,1.7-3.3,2.5-5
	c0.6-1.2,1.2-2.5,1.9-3.7c0.1-0.1,0.8-1.3,0.7-1.4c-0.9-1.2-1.8-2.4-2.8-3.6c-2-2.7-4.1-5.3-6.1-8c-2.1-2.7-4.1-5.4-6.2-8.1
	c-0.7-0.9-1.3-1.8-2-2.6c-0.3-0.4-0.7-1-1.1-1.3c-0.1-0.1-6.7,9.1-6.9,9.3c-0.9,1.2-1.8,2.4-2.7,3.6c-2.5,3.8-5.4,7.3-8.1,11
	l11.5,23.9C100.4,80.1,103,80.1,103,80.1z"/>
<path class="st3" d="M144.6,90.1c6.6,4.2,13.1,8.6,19.7,12.9c0.3,0.2,1.4-0.7,1.7-0.8c0.7-0.4,1.4-0.9,2.1-1.3c2.5-1.4,4.9-3,7-4.9
	c4.4-4,7.1-9.2,8-15.1c0.5-3.4,0.6-6.9,0.6-10.4c0-0.2-4.9,0.3-5.4,0.4c-3.1,0.5-5.9,1-8.6,2.7c-0.2,0.1-0.3,0.2-0.5,0.3
	c-4,2.6-6.9,6.8-7.5,11.6c-1.3,0.2-2.6,0.2-3.9,0.2c-0.8,0,0.2-7.4,0.3-8.1c0.5-2.5,1.7-4.7,3.5-6.5c1.9-1.9,4.2-3,6.8-3.8
	c2.9-0.9,5.8-1.7,8.6-2.6c0.4-0.1,5.3-1.3,5.3-1.1l0.2-10.8c0,0.1-2.3,0.7-2.5,0.8c-8.2,2.7-16.4,6.1-23.1,11.5
	c-6.9,5.5-12,13.2-13.1,22c0,0.3-0.1,0.6-0.1,0.8c-0.1,0.5-0.1,0.9-0.1,1.4C143.6,89.5,144.6,90.1,144.6,90.1z"/>
<polygon class="st6" points="95.8,108 117.2,108 117.2,127 95.8,160.6 "/>
<polygon class="st7" points="63.4,92 89.8,130.8 89.8,169.9 44.8,103.7 "/>
<circle class="st6" cx="106.5" cy="58.6" r="4.1"/>
</svg>
