<?xml version="1.0" encoding="utf-8"?>
<!-- Generator: Adobe Illustrator 25.4.1, SVG Export Plug-In . SVG Version: 6.00 Build 0)  -->
<svg version="1.1" id="Layer_1" xmlns="http://www.w3.org/2000/svg" xmlns:xlink="http://www.w3.org/1999/xlink" x="0px" y="0px"
	 viewBox="0 0 216 216" style="enable-background:new 0 0 216 216;" xml:space="preserve">
<style type="text/css">
	.st0{display:none;}
	.st1{fill:#00FFB9;stroke:#00FFB9;stroke-miterlimit:10;}
	.st2{fill:#00FFB9;}
</style>
<g id="Layer_3" class="st0">
</g>
<path class="st1" d="M45,126c0.8,1.3,1,2.6,1,3.9c0,2.3-0.9,4.3-2.8,6c-1.9,1.7-4.4,2.6-7.5,2.6c-4,0-7.9-1.6-11.4-4.8
	c-0.9-0.8-1.7-1.7-2.3-2.6c-2.1,0.5-4.3,1-6.3,1.6v8.7h1.6c0.5-1.2,1.2-2.1,1.9-2.6c0.8-0.5,1.6-0.9,2.3-0.9c0.9,0,1.9,0.3,3.4,0.9
	c2.5,1,4.4,1.7,6.1,2.1c1.6,0.4,3.2,0.5,5,0.5c5.7,0,10.5-1.7,14.1-5.2c3.8-3.5,5.6-7.5,5.6-12.3c0-0.3,0-0.4,0-0.6
	c-3.6,0.8-7.2,1.6-10.9,2.5C45,125.9,45,125.9,45,126z"/>
<path class="st1" d="M17.3,119.8h-1.6v12.9c2.1-0.5,4.3-1,6.3-1.6C19.9,128.2,18.2,124.5,17.3,119.8z"/>
<path class="st1" d="M22.9,111.5c1.9,1.6,4.8,3.2,8.8,5.3c6.9-0.9,13.8-1.8,20.7-2.8l0,0c-2.3-2.8-6.9-6.1-13.5-9.3
	c-4.8-2.3-7.8-4-9.1-4.9c-1.8-1.3-3.1-2.6-3.9-3.9c-0.6-1-0.9-2.1-0.9-3.4c0-1.9,0.8-3.8,2.5-5.3c1.7-1.6,3.9-2.3,6.7-2.3
	c3.8,0,7.1,1.4,10.4,4.4c3.2,2.8,5.2,6.7,6,11.5h1.7l-0.5-19h-1.3c-0.4,1.7-0.8,2.8-1.2,3.2c-0.4,0.4-1,0.6-1.7,0.6
	c-0.8,0-2.1-0.4-4-1.4c-1.9-0.9-3.5-1.6-4.8-1.8c-1.7-0.4-3.5-0.6-5.4-0.6c-5,0-9.3,1.6-12.7,4.8s-5,7.1-5,11.6c0,2.7,0.6,5,1.8,7.4
	C18.9,107.7,20.5,109.7,22.9,111.5z"/>
<path class="st1" d="M67.3,85.8c0.8,0.5,1.3,1.3,1.6,2.3c0.1,0.5,0.3,2.2,0.3,4.8v18.9c4.9-0.6,9.7-1.4,14.6-2.1h-1V86.3h6
	c4.3,0,7.2,0.3,8.8,0.8c2.7,0.9,4.8,2.2,6.2,4c1.4,1.8,2.6,4.8,3.5,8.9h1.6V83.2H60.9v1.6h1.9C64.7,84.6,66.1,85,67.3,85.8z"/>
<path class="st1" d="M92.6,118c1,2.1,1.8,4.8,2.1,8h1.6v-11.1c-1.7,0.4-3.4,0.6-5,1C91.9,116.5,92.2,117.1,92.6,118z"/>
<path class="st1" d="M68.9,130.3c0,2.8-0.1,4.7-0.5,5.3c-0.4,0.9-0.9,1.7-1.7,2.1c-1,0.6-2.3,0.9-4,0.9h-1.9v1.6h49.3l2.6-18.1h-1.6
	c-1.4,5-3.8,8.8-6.9,11.3c-3.2,2.5-7.5,3.8-12.8,3.8h-3.4c-1.7,0-2.8-0.3-3.5-0.6c-0.8-0.4-1.2-1-1.6-1.7c-0.3-0.6-0.4-2.6-0.4-5.7
	v-11.1c-4.5,0.9-9.2,1.9-13.7,2.8C68.9,120.5,68.9,130.3,68.9,130.3z"/>
<path class="st1" d="M96.4,96.1h-1.6c-0.4,4.4-1.6,7.8-3.1,10.1c-0.9,1.3-2.2,2.2-3.8,2.8c2.8-0.4,5.7-0.8,8.5-1.3L96.4,96.1
	L96.4,96.1z"/>
<path class="st1" d="M164.7,100.7c0.5,3.1,0.8,7,0.8,11.5c0,6.3-0.6,11.5-2.1,15.4s-3.4,6.9-5.7,8.7c-1.9,1.4-4.4,2.1-7.2,2.1
	c-4.3,0-7.6-1.7-10-4.9c-3.4-4.7-5.2-11.9-5.2-21.6c0-1.7,0-3.4,0.1-4.9c-5,1-10.2,2.1-15.3,3.1c0,0.4,0,0.9,0,1.3
	c0,7.5,2.2,14.1,6.6,19.5c5.6,7,13.6,10.5,23.8,10.5s18.1-3.6,23.8-10.9c4.3-5.4,6.3-11.9,6.3-19.2c0-5.2-1.2-9.8-3.2-14
	c-3,0.8-5.8,1.6-8.8,2.3C167.3,100,166,100.3,164.7,100.7z"/>
<path class="st1" d="M138.6,92.9c2.7-5.3,6.7-8,11.9-8c2.8,0,5.3,0.8,7.5,2.3c2.2,1.6,4,4.1,5.3,7.9c0.3,0.5,0.4,1.2,0.6,1.9
	c4-0.6,8-1.3,12.2-2.1c-1.2-1.7-2.5-3.4-4-4.9c-5.7-5.6-13.1-8.3-22.1-7.9c-8.4-0.4-15.5,2.3-21.2,8c-4,3.9-6.6,8.5-7.8,13.7
	c5-0.8,10.1-1.6,15-2.3C136.5,98.2,137.4,95.2,138.6,92.9z"/>
<polygon class="st2" points="188.5,97.2 193.4,103.9 209,82.7 177.2,82.7 183.4,90.3 183.9,94.6 185.6,91 197.6,87 186.6,93.3 
	185.6,100 "/>
</svg>
