<?xml version="1.0" encoding="utf-8"?>
<!-- Generator: Adobe Illustrator 25.4.1, SVG Export Plug-In . SVG Version: 6.00 Build 0)  -->
<svg version="1.1" id="Layer_1" xmlns="http://www.w3.org/2000/svg" xmlns:xlink="http://www.w3.org/1999/xlink" x="0px" y="0px"
	 viewBox="0 0 216 216" style="enable-background:new 0 0 216 216;" xml:space="preserve">
<style type="text/css">
	.st0{display:none;}
	.st1{fill:#112249;}
	.st2{fill:#00FFB9;}
	.st3{fill:#142248;}
	.st4{font-family:'ArialMT';}
	.st5{font-size:32.1517px;}
	.st6{fill:none;stroke:#152248;stroke-width:0.75;stroke-miterlimit:10;}
</style>
<g id="Layer_2_00000168827244540443149420000016135686979997112211_" class="st0">
</g>
<g id="Layer_3">
	<path class="st1" d="M205.8,164H14.3c-2.3,0-4.2-2-4.2-4.2v-6.1h199.8v6.4C209.9,162.2,208,164,205.8,164z"/>
	<path class="st1" d="M192.6,154.6H28.4V62.8c0-3,2.4-5.4,5.4-5.4H187c3.1,0,5.6,2.5,5.6,5.6L192.6,154.6L192.6,154.6z"/>
</g>
<g id="Layer_4">
	<rect x="35" y="64.9" class="st2" width="151.5" height="82.3"/>
	<path class="st2" d="M121,159.6h-20.7c-1.3,0-2.3-1-2.3-2.3l0,0c0-1.3,1-2.3,2.3-2.3H121c1.3,0,2.3,1,2.3,2.3l0,0
		C123.3,158.6,122.3,159.6,121,159.6z"/>
	<circle class="st2" cx="110.4" cy="61.7" r="1.7"/>
</g>
<g id="Layer_5">
	<text transform="matrix(1 0 0 1 72.4834 114.7373)" class="st3 st4 st5">http://</text>
	<text transform="matrix(1 0 0 1 72.4834 114.7373)" class="st6 st4 st5">http://</text>
</g>
</svg>
